# xmcd
#
# Track frame offsets: 
#        150
#        11565
#        22715
#        34180
#        45375
#        57397
#        67802
#        78255
#        89560
#        100745
#        111630
#        122577
#        132355
#        144417
#        157357
#        169040
#        181735
#        192362
#        204072
#        214640
#
# Disc length: 3025 seconds
#
# Revision: 3
# Processed by: cddbd v1.5.2PL0 Copyright (c) Steve Scherf et al.
# Submitted via: ExactAudioCopy v0.99pb5
#
DISCID=090bcf14
DTITLE=Sonny James - The Capitol Collector's Series
DYEAR=1990
DGENRE=
TTITLE0=Young Love
TTITLE1=First Date, First Kiss, First Love
TTITLE2=The Minute You're Gone
TTITLE3=Baltimore
TTITLE4=Ask Marie
TTITLE5=You're The Only World I Know
TTITLE6=True Love's A Blessing
TTITLE7=Take Good Care Of Her
TTITLE8=Room In Your Heart
TTITLE9=Need You
TTITLE10=I'll Never Find Another You
TTITLE11=Heaven Says Hello
TTITLE12=Only The Lonely (Know The Way I Feel)
TTITLE13=Since I Met You Baby
TTITLE14=It's Just A Matter Of Time
TTITLE15=My Love
TTITLE16=Empty Arms
TTITLE17=Bright Lights, Big City
TTITLE18=Only Love Can Break A Heart
TTITLE19=That's Why I Love You Like I Do
EXTD=
EXTT0=
EXTT1=
EXTT2=
EXTT3=
EXTT4=
EXTT5=
EXTT6=
EXTT7=
EXTT8=
EXTT9=
EXTT10=
EXTT11=
EXTT12=
EXTT13=
EXTT14=
EXTT15=
EXTT16=
EXTT17=
EXTT18=
EXTT19=
PLAYORDER=
